# xmcd
#
# Track frame offsets:
#       150
#       18804
#       35197
#       49005
#       62649
#       78385
#       104013
#       125474
#       141299
#       169703
#       184610
#       204397
#       228740
#       245061
#       260494
#       280646
#       299702
#       314175
#       326892
#       342146
#
# Disc length: 4740 seconds
#
# Revision: 0
# Processed by: cddbd v1.4PL0 Copyright (c) Steve Scherf et al.
# Submitted via: WhereIsIt 3.26
#
DISCID=3b128214
DTITLE=Thomas Fersen
DYEAR=1900
DGENRE=
TTITLE0=Pièce montée des grands jours
TTITLE1=Le chat botté
TTITLE2=Les cravates
TTITLE3=Deux pieds
TTITLE4=Borborygmes
TTITLE5=Le bal des oiseaux
TTITLE6=Monsieur
TTITLE7=Bijou
TTITLE8=Dugenou
TTITLE9=Chez toi
TTITLE10=La chauve-souris
TTITLE11=Elisabeth
TTITLE12=Le moucheron
TTITLE13=Les malheurs du lion
TTITLE14=Les papillons
TTITLE15=marie-des-Guerites
TTITLE16=Bucephale
TTITLE17=Louise
TTITLE18=Un parapluie pour deux
TTITLE19=Tchi-tchi
EXTD=Compilation
EXTT0=
EXTT1=
EXTT2=
EXTT3=
EXTT4=
EXTT5=
EXTT6=
EXTT7=
EXTT8=
EXTT9=
EXTT10=
EXTT11=
EXTT12=
EXTT13=
EXTT14=
EXTT15=
EXTT16=
EXTT17=
EXTT18=
EXTT19=
PLAYORDER=
